<?xml version="1.0" encoding="utf-8"?>
<!-- Generator: $$$/GeneralStr/196=Adobe Illustrator 27.6.0, SVG Export Plug-In . SVG Version: 6.00 Build 0)  -->
<svg version="1.1" id="Ebene_1" xmlns="http://www.w3.org/2000/svg" x="0px" y="0px"
	 viewBox="0 0 1015.9194 500.462" enable-background="new 0 0 1015.9194 500.462" xml:space="preserve">
<g>
	<polygon fill="currentColor" points="417,0.001 327.585,0.001 251.3199,152.359 221.2079,10.032 220.65,10.505 221.473,8.925
		134.924,8.925 0,278.465 89.9,278.465 152.377,148.006 185.126,278.465 278,278.465 281.068,278.465 385.345,60.735 	"/>
	<path fill="currentColor" d="M954.602,245.777c-15.029-10.1815-31.9176-17.3006-49.7-20.95c-18.4852-3.7715-37.5417-3.7715-56.027,0
		c-8.9441,1.8354-17.6842,4.553-26.092,8.113c-24.7533,10.5062-45.9386,27.9492-61.001,50.2253
		c-11.3055,16.72-18.4885,35.0137-21.7943,53.6827H636.6459v57.7h53c-0.633,1.064-1.3,2.118-1.9839,3.134
		c-4.6729,6.9377-10.632,12.9155-17.555,17.61c-18.1971,12.3343-41.4082,14.5972-61.645,6.01
		c-11.571-4.9193-21.4751-13.0757-28.5217-23.4888c-20.2041-29.8568-12.3791-70.4391,17.4777-90.6432
		c10.7238-7.2726,23.3868-11.1519,36.344-11.134h84.6v-74.038h-81.713v0.031c-0.958-0.02-1.93-0.03-2.887-0.03
		c-9.4074-0.0021-18.791,0.9457-28.008,2.829c-0.6886,0.1413-1.3737,0.2976-2.0599,0.4493L603.377,0h-93.63l0.0002,0.001H449.624
		l-139.39,278.464h92.874l43.1955-90.192h76.3786l-0.4957,89.9461c-1.2035,1.6228-2.3846,3.2643-3.5197,4.9429
		c-43.1163,63.7619-26.3796,150.4037,37.3823,193.52c15.0288,10.1818,31.9175,17.3009,49.7,20.95
		c9.2186,1.8836,18.6039,2.8314,28.013,2.829c9.408,0.0024,18.7923-0.945,28.01-2.8279c8.944-1.8356,17.6841-4.5532,26.092-8.113
		c24.8365-10.544,46.0807-28.0668,61.157-50.444c2.252-3.3358,4.3445-6.7673,6.2917-10.2744
		c10.2978,18.6161,25.0245,35.1479,43.8563,47.8813c15.029,10.1816,31.9176,17.3006,49.7,20.95
		c9.219,1.8833,18.6046,2.8311,28.014,2.829c9.4097,0.0021,18.7957-0.9456,28.015-2.829c8.944-1.8354,17.6841-4.553,26.092-8.113
		c24.7531-10.5063,45.9381-27.9494,61.0003-50.2256C1035.1042,375.5316,1018.3649,288.8909,954.602,245.777z M473.9376,130.573
		l33.4474-69.838h16l-0.3849,69.838H473.9376z M913.228,415.288c-18.1968,12.3351-41.4081,14.5984-61.645,6.011
		c-11.5666-4.9188-21.4672-13.0723-28.5125-23.4811c-20.2079-29.8555-12.387-70.4399,17.4684-90.6478
		c10.7233-7.2735,23.3867-11.1529,36.3441-11.134v-0.0001c8.6926-0.0165,17.2986,1.7261,25.3,5.123
		c11.5667,4.9187,21.4674,13.0721,28.5128,23.481C950.9039,354.4954,943.0833,395.0799,913.228,415.288z"/>
</g>
</svg>
